<svg width="128" height="128" viewBox="0 0 128 128" fill="none" xmlns="http://www.w3.org/2000/svg">
<path d="M85.4027 77.336C78.0373 90.0934 61.7253 94.464 48.968 87.0987C45.5378 85.1232 42.5923 82.4064 40.3467 79.1467C40.1726 78.8943 40.059 78.6053 40.0144 78.3021C39.9698 77.9988 39.9956 77.6893 40.0897 77.3976C40.1837 77.1058 40.3436 76.8396 40.5569 76.6195C40.7703 76.3993 41.0313 76.2312 41.32 76.128C51.3653 72.5334 56.7467 68.368 59.8693 62.4053C63.1573 56.1307 64.0053 49.2587 61.7067 39.8373C61.6325 39.5341 61.6304 39.2177 61.7005 38.9135C61.7706 38.6093 61.9109 38.3257 62.1102 38.0855C62.3095 37.8452 62.5622 37.655 62.8483 37.5299C63.1343 37.4049 63.4456 37.3485 63.7573 37.3653C67.9428 37.5906 72.0156 38.8032 75.6427 40.904C88.4 48.2693 92.7707 64.5813 85.4027 77.336Z" fill="#C8392E"/>
<path d="M43.375 56.7578V53.0117H46.0391C46.5904 53.0117 46.9823 53.1057 47.2502 53.2539L47.2501 53.254L47.2574 53.2578C47.5299 53.4028 47.7155 53.6022 47.8326 53.8641L47.8325 53.8642L47.8362 53.8721C47.9707 54.1593 48.0469 54.5175 48.0469 54.9609C48.0469 55.3342 47.9689 55.6444 47.8267 55.9051C47.6931 56.1501 47.4832 56.3565 47.1713 56.5194C46.873 56.6676 46.4541 56.7578 45.8867 56.7578H43.375ZM42.875 60.5H43.375H45.8867C47.2508 60.5 48.4361 60.3068 49.4267 59.9006C50.4313 59.492 51.2174 58.8717 51.7567 58.0319L51.7579 58.0299C52.2961 57.183 52.5508 56.1629 52.5508 54.9961C52.5508 54.2347 52.3859 53.515 52.055 52.8436C51.7184 52.1444 51.1808 51.5867 50.4666 51.168C50.4468 51.156 50.4268 51.1442 50.4067 51.1326C50.9297 50.7629 51.3404 50.3099 51.6249 49.7703C51.9854 49.1011 52.1641 48.3713 52.1641 47.5898C52.1641 46.7336 52.0088 45.9665 51.6783 45.3049C51.3512 44.6424 50.8771 44.0943 50.2633 43.6646C49.6551 43.2389 48.9262 42.9315 48.0889 42.7324C47.2618 42.534 46.335 42.4375 45.3125 42.4375H39.3594H38.8594V42.9375V60V60.5H39.3594H39.8863H40.6953H42.875ZM49.939 51.4249L49.6953 50.9883L49.9379 51.4255C49.9383 51.4253 49.9386 51.4251 49.939 51.4249ZM45.3125 49.5977H43.375V46.1914H45.3125C45.9367 46.1914 46.409 46.2628 46.7492 46.3847L46.7492 46.3847L46.752 46.3857C47.0833 46.5023 47.2886 46.6739 47.4141 46.8846L47.414 46.8847L47.4186 46.8921C47.5577 47.1167 47.6484 47.446 47.6484 47.918C47.6484 48.3104 47.5609 48.6104 47.4114 48.8429L47.4098 48.8455C47.2717 49.0633 47.053 49.2486 46.7183 49.3882C46.3835 49.5201 45.9219 49.5977 45.3125 49.5977Z" fill="white" stroke="#1C1F1E"/>
</svg>
